# MagicaVoxel @ Ephtracy

# group
o 

# material
mtllib Enemy Body.mtl
usemtl palette

# normals
vn -1 0 0
vn 1 0 0
vn 0 0 1
vn 0 0 -1
vn 0 -1 0
vn 0 1 0

# texcoords
vt 0.537109 0.5
vt 0.861328 0.5
vt 0.958984 0.5
vt 0.990234 0.5
vt 0.994141 0.5

# verts
v -0.3 0.1 0.3
v -0.3 0.1 0.2
v -0.3 0.1 -0.2
v -0.3 0.2 0.3
v -0.3 0.2 0.2
v -0.3 0.4 0.3
v -0.3 0.4 0.1
v -0.3 0.4 0
v -0.3 0.4 -0.2
v -0.3 0.5 0
v -0.3 0.5 -0.1
v -0.3 0.6 0.3
v -0.3 0.6 0.2
v -0.3 0.6 0.1
v -0.3 0.6 0
v -0.3 0.6 -0.1
v -0.3 0.6 -0.2
v -0.3 0.6 -0.3
v -0.3 0.7 0.3
v -0.3 0.7 0.2
v -0.3 0.7 0
v -0.3 0.7 -0.3
v -0.2 0 0.3
v -0.2 0 0.2
v -0.2 0 0.1
v -0.2 0 -0.2
v -0.2 0.1 0.3
v -0.2 0.1 0.2
v -0.2 0.1 0.1
v -0.2 0.1 -0.2
v -0.2 0.5 0.4
v -0.2 0.5 0.3
v -0.2 0.5 -0.2
v -0.2 0.5 -0.4
v -0.2 0.6 0.3
v -0.2 0.6 -0.2
v -0.2 0.6 -0.3
v -0.2 0.7 0.4
v -0.2 0.7 0.3
v -0.2 0.7 -0.3
v -0.2 0.7 -0.4
v 0.1 0.4 0.1
v 0.1 0.4 0
v 0.1 0.5 0.4
v 0.1 0.5 0.3
v 0.1 0.5 0.2
v 0.1 0.5 0.1
v 0.1 0.5 0
v 0.1 0.5 -0.1
v 0.1 0.5 -0.2
v 0.1 0.6 0.3
v 0.1 0.6 0.2
v 0.1 0.6 0
v 0.1 0.6 -0.1
v 0.1 0.6 -0.2
v 0.1 0.7 0.4
v 0.1 0.7 0.3
v 0.1 0.7 0.2
v 0.2 0.5 0
v 0.2 0.5 -0.1
v 0.2 0.6 0.2
v 0.2 0.6 0
v 0.2 0.6 -0.1
v 0.2 0.6 -0.2
v 0.2 0.6 -0.3
v 0.2 0.7 0.2
v 0.2 0.7 0
v 0.2 0.7 -0.3
v -0.2 0.5 0.2
v -0.2 0.5 0.1
v -0.2 0.5 0
v -0.2 0.6 0.2
v -0.2 0.6 0.1
v -0.2 0.6 0
v -0.2 0.6 -0.1
v -0.2 0.6 -0.2
v -0.2 0.6 -0.3
v -0.2 0.7 0.2
v -0.2 0.7 0
v -0.2 0.7 -0.3
v -0.1 0.5 0.4
v -0.1 0.5 0.3
v -0.1 0.5 0
v -0.1 0.5 -0.1
v -0.1 0.5 -0.2
v -0.1 0.6 0.3
v -0.1 0.6 0.2
v -0.1 0.6 0
v -0.1 0.6 -0.1
v -0.1 0.6 -0.2
v -0.1 0.7 0.4
v -0.1 0.7 0.3
v -0.1 0.7 0.2
v 0 0.4 0.1
v 0 0.4 0
v 0 0.5 0.1
v 0 0.5 0
v 0.2 0 0.3
v 0.2 0 -0.2
v 0.2 0.1 0.3
v 0.2 0.1 -0.2
v 0.2 0.5 0.4
v 0.2 0.5 0.3
v 0.2 0.5 -0.2
v 0.2 0.5 -0.4
v 0.2 0.6 0.3
v 0.2 0.6 -0.2
v 0.2 0.6 -0.3
v 0.2 0.7 0.4
v 0.2 0.7 0.3
v 0.2 0.7 -0.3
v 0.2 0.7 -0.4
v 0.3 0.1 0.3
v 0.3 0.1 -0.2
v 0.3 0.2 0.3
v 0.3 0.2 0.2
v 0.3 0.3 0.3
v 0.3 0.3 0.2
v 0.3 0.4 0.3
v 0.3 0.4 -0.2
v 0.3 0.6 0.3
v 0.3 0.6 0.2
v 0.3 0.6 0
v 0.3 0.6 -0.2
v 0.3 0.6 -0.3
v 0.3 0.7 0.3
v 0.3 0.7 0.2
v 0.3 0.7 0
v 0.3 0.7 -0.3
v -0.2 0.5 0.4
v -0.2 0.7 0.4
v -0.1 0.5 0.4
v -0.1 0.7 0.4
v 0.1 0.5 0.4
v 0.1 0.7 0.4
v 0.2 0.5 0.4
v 0.2 0.7 0.4
v -0.3 0.1 0.3
v -0.3 0.2 0.3
v -0.3 0.4 0.3
v -0.3 0.6 0.3
v -0.3 0.7 0.3
v -0.2 0 0.3
v -0.2 0.1 0.3
v -0.2 0.2 0.3
v -0.2 0.3 0.3
v -0.2 0.5 0.3
v -0.2 0.6 0.3
v -0.2 0.7 0.3
v -0.1 0 0.3
v -0.1 0.1 0.3
v -0.1 0.2 0.3
v -0.1 0.3 0.3
v -0.1 0.5 0.3
v -0.1 0.6 0.3
v 0 0 0.3
v 0 0.1 0.3
v 0 0.2 0.3
v 0 0.3 0.3
v 0 0.5 0.3
v 0 0.6 0.3
v 0.1 0.1 0.3
v 0.1 0.3 0.3
v 0.1 0.5 0.3
v 0.1 0.6 0.3
v 0.2 0 0.3
v 0.2 0.1 0.3
v 0.2 0.2 0.3
v 0.2 0.3 0.3
v 0.2 0.5 0.3
v 0.2 0.6 0.3
v 0.2 0.7 0.3
v 0.3 0.1 0.3
v 0.3 0.2 0.3
v 0.3 0.3 0.3
v 0.3 0.4 0.3
v 0.3 0.6 0.3
v 0.3 0.7 0.3
v -0.2 0.5 0
v -0.2 0.6 0
v -0.1 0.5 0
v -0.1 0.6 0
v 0 0.4 0
v 0 0.5 0
v 0.1 0.4 0
v 0.1 0.5 0
v 0.1 0.5 -0.1
v 0.1 0.6 -0.1
v 0.2 0.5 -0.1
v 0.2 0.6 -0.1
v -0.1 0.5 -0.2
v -0.1 0.6 -0.2
v 0.1 0.5 -0.2
v 0.1 0.6 -0.2
v -0.2 0.6 -0.3
v -0.2 0.7 -0.3
v 0.2 0.6 -0.3
v 0.2 0.7 -0.3
v -0.2 0.5 0.2
v -0.2 0.6 0.2
v -0.2 0.7 0.2
v -0.1 0.6 0.2
v -0.1 0.7 0.2
v 0 0.5 0.2
v 0 0.6 0.2
v 0.1 0.5 0.2
v 0.1 0.6 0.2
v 0.1 0.7 0.2
v 0.2 0.6 0.2
v 0.2 0.7 0.2
v 0 0.4 0.1
v 0 0.5 0.1
v 0.1 0.4 0.1
v 0.1 0.5 0.1
v 0.1 0.5 0
v 0.1 0.6 0
v 0.2 0.5 0
v 0.2 0.6 0
v -0.3 0.1 -0.2
v -0.3 0.4 -0.2
v -0.3 0.6 -0.2
v -0.2 0 -0.2
v -0.2 0.1 -0.2
v -0.2 0.5 -0.2
v -0.2 0.6 -0.2
v 0.2 0 -0.2
v 0.2 0.1 -0.2
v 0.2 0.5 -0.2
v 0.2 0.6 -0.2
v 0.3 0.1 -0.2
v 0.3 0.4 -0.2
v 0.3 0.6 -0.2
v -0.3 0.6 -0.3
v -0.3 0.7 -0.3
v -0.2 0.6 -0.3
v -0.2 0.7 -0.3
v 0.2 0.6 -0.3
v 0.2 0.7 -0.3
v 0.3 0.6 -0.3
v 0.3 0.7 -0.3
v -0.2 0.5 -0.4
v -0.2 0.7 -0.4
v 0.2 0.5 -0.4
v 0.2 0.7 -0.4
v -0.2 0 0.3
v -0.1 0 0.3
v 0 0 0.3
v 0.2 0 0.3
v -0.2 0 0.2
v -0.1 0 0.2
v 0 0 0.2
v 0.1 0 0.2
v -0.2 0 0.1
v -0.1 0 0.1
v 0 0 0.1
v -0.1 0 -0.1
v 0.1 0 -0.1
v -0.2 0 -0.2
v 0.2 0 -0.2
v -0.3 0.1 0.3
v -0.2 0.1 0.3
v 0.2 0.1 0.3
v 0.3 0.1 0.3
v -0.3 0.1 0.2
v -0.2 0.1 0.2
v -0.2 0.1 0.1
v -0.3 0.1 -0.2
v -0.2 0.1 -0.2
v 0.2 0.1 -0.2
v 0.3 0.1 -0.2
v -0.2 0.5 0.4
v -0.1 0.5 0.4
v 0.1 0.5 0.4
v 0.2 0.5 0.4
v -0.2 0.5 0.3
v -0.1 0.5 0.3
v 0.1 0.5 0.3
v 0.2 0.5 0.3
v -0.2 0.5 -0.2
v 0.2 0.5 -0.2
v -0.2 0.5 -0.4
v 0.2 0.5 -0.4
v -0.3 0.6 -0.2
v -0.2 0.6 -0.2
v 0.2 0.6 -0.2
v 0.3 0.6 -0.2
v -0.3 0.6 -0.3
v -0.2 0.6 -0.3
v 0.2 0.6 -0.3
v 0.3 0.6 -0.3
v 0 0.4 0.1
v 0.1 0.4 0.1
v 0 0.4 0
v 0.1 0.4 0
v -0.2 0.5 0.2
v 0 0.5 0.2
v 0.1 0.5 0.2
v -0.2 0.5 0.1
v -0.1 0.5 0.1
v 0 0.5 0.1
v 0.1 0.5 0.1
v -0.2 0.5 0
v -0.1 0.5 0
v 0 0.5 0
v 0.1 0.5 0
v 0.2 0.5 0
v -0.1 0.5 -0.1
v 0.1 0.5 -0.1
v 0.2 0.5 -0.1
v -0.1 0.5 -0.2
v 0.1 0.5 -0.2
v -0.1 0.6 0.3
v 0 0.6 0.3
v 0.1 0.6 0.3
v -0.1 0.6 0.2
v 0 0.6 0.2
v 0.1 0.6 0.2
v 0.2 0.6 0.2
v -0.2 0.6 0
v -0.1 0.6 0
v 0.1 0.6 0
v 0.2 0.6 0
v -0.2 0.6 -0.1
v -0.1 0.6 -0.1
v 0.1 0.6 -0.1
v 0.2 0.6 -0.1
v -0.2 0.6 -0.2
v -0.1 0.6 -0.2
v 0.1 0.6 -0.2
v 0.2 0.6 -0.2
v -0.2 0.6 -0.3
v 0.2 0.6 -0.3
v -0.2 0.7 0.4
v -0.1 0.7 0.4
v 0.1 0.7 0.4
v 0.2 0.7 0.4
v -0.3 0.7 0.3
v -0.2 0.7 0.3
v -0.1 0.7 0.3
v 0.1 0.7 0.3
v 0.2 0.7 0.3
v 0.3 0.7 0.3
v -0.3 0.7 0.2
v -0.2 0.7 0.2
v -0.1 0.7 0.2
v 0.1 0.7 0.2
v 0.2 0.7 0.2
v 0.3 0.7 0.2
v -0.3 0.7 0
v -0.2 0.7 0
v 0.2 0.7 0
v 0.3 0.7 0
v -0.3 0.7 -0.3
v -0.2 0.7 -0.3
v 0.2 0.7 -0.3
v 0.3 0.7 -0.3
v -0.2 0.7 -0.4
v 0.2 0.7 -0.4

# faces
f 4/2/1 2/2/1 1/2/1
f 5/3/1 3/3/1 2/3/1
f 5/2/1 2/2/1 4/2/1
f 6/3/1 5/3/1 4/3/1
f 7/3/1 3/3/1 5/3/1
f 7/3/1 5/3/1 6/3/1
f 8/3/1 3/3/1 7/3/1
f 9/3/1 3/3/1 8/3/1
f 10/1/1 8/1/1 7/1/1
f 10/4/1 9/4/1 8/4/1
f 11/4/1 9/4/1 10/4/1
f 12/4/1 7/4/1 6/4/1
f 13/4/1 7/4/1 12/4/1
f 14/1/1 10/1/1 7/1/1
f 14/4/1 7/4/1 13/4/1
f 15/3/1 11/3/1 10/3/1
f 15/1/1 10/1/1 14/1/1
f 16/4/1 9/4/1 11/4/1
f 16/3/1 11/3/1 15/3/1
f 17/4/1 9/4/1 16/4/1
f 19/3/1 13/3/1 12/3/1
f 20/4/1 15/4/1 14/4/1
f 20/3/1 13/3/1 19/3/1
f 20/4/1 14/4/1 13/4/1
f 21/3/1 17/3/1 16/3/1
f 21/4/1 15/4/1 20/4/1
f 21/3/1 18/3/1 17/3/1
f 21/3/1 16/3/1 15/3/1
f 22/3/1 18/3/1 21/3/1
f 27/1/1 24/1/1 23/1/1
f 28/2/1 25/2/1 24/2/1
f 28/1/1 24/1/1 27/1/1
f 29/4/1 26/4/1 25/4/1
f 29/2/1 25/2/1 28/2/1
f 30/4/1 26/4/1 29/4/1
f 35/5/1 32/5/1 31/5/1
f 36/3/1 34/3/1 33/3/1
f 37/3/1 34/3/1 36/3/1
f 38/5/1 35/5/1 31/5/1
f 39/5/1 35/5/1 38/5/1
f 40/3/1 34/3/1 37/3/1
f 41/3/1 34/3/1 40/3/1
f 47/3/1 43/3/1 42/3/1
f 48/3/1 43/3/1 47/3/1
f 51/5/1 45/5/1 44/5/1
f 52/3/1 47/3/1 46/3/1
f 52/3/1 48/3/1 47/3/1
f 53/3/1 48/3/1 52/3/1
f 54/4/1 50/4/1 49/4/1
f 55/4/1 50/4/1 54/4/1
f 56/5/1 51/5/1 44/5/1
f 57/3/1 52/3/1 51/3/1
f 57/5/1 51/5/1 56/5/1
f 58/3/1 52/3/1 57/3/1
f 62/4/1 60/4/1 59/4/1
f 63/4/1 60/4/1 62/4/1
f 66/4/1 62/4/1 61/4/1
f 67/3/1 65/3/1 64/3/1
f 67/4/1 62/4/1 66/4/1
f 67/3/1 63/3/1 62/3/1
f 67/3/1 64/3/1 63/3/1
f 68/3/1 65/3/1 67/3/1
f 69/4/2 70/4/2 72/4/2
f 70/1/2 71/1/2 73/1/2
f 72/4/2 70/4/2 73/4/2
f 73/1/2 71/1/2 74/1/2
f 72/4/2 73/4/2 78/4/2
f 73/4/2 74/4/2 78/4/2
f 76/3/2 77/3/2 79/3/2
f 78/4/2 74/4/2 79/4/2
f 75/3/2 76/3/2 79/3/2
f 74/3/2 75/3/2 79/3/2
f 79/3/2 77/3/2 80/3/2
f 81/5/2 82/5/2 86/5/2
f 83/3/2 84/3/2 88/3/2
f 84/4/2 85/4/2 89/4/2
f 88/3/2 84/3/2 89/3/2
f 89/4/2 85/4/2 90/4/2
f 81/5/2 86/5/2 91/5/2
f 86/3/2 87/3/2 92/3/2
f 91/5/2 86/5/2 92/5/2
f 92/3/2 87/3/2 93/3/2
f 94/1/2 95/1/2 96/1/2
f 96/1/2 95/1/2 97/1/2
f 98/4/2 99/4/2 100/4/2
f 100/4/2 99/4/2 101/4/2
f 102/5/2 103/5/2 106/5/2
f 104/3/2 105/3/2 107/3/2
f 107/3/2 105/3/2 108/3/2
f 102/5/2 106/5/2 109/5/2
f 109/5/2 106/5/2 110/5/2
f 108/3/2 105/3/2 111/3/2
f 111/3/2 105/3/2 112/3/2
f 113/3/2 114/3/2 115/3/2
f 115/3/2 114/3/2 116/3/2
f 115/2/2 116/2/2 117/2/2
f 116/3/2 114/3/2 118/3/2
f 117/2/2 116/2/2 118/2/2
f 117/3/2 118/3/2 119/3/2
f 118/3/2 114/3/2 120/3/2
f 119/3/2 118/3/2 120/3/2
f 119/4/2 120/4/2 121/4/2
f 121/4/2 120/4/2 122/4/2
f 122/4/2 120/4/2 123/4/2
f 123/4/2 120/4/2 124/4/2
f 121/3/2 122/3/2 126/3/2
f 122/4/2 123/4/2 127/4/2
f 126/3/2 122/3/2 127/3/2
f 123/3/2 124/3/2 128/3/2
f 127/4/2 123/4/2 128/4/2
f 124/3/2 125/3/2 128/3/2
f 128/3/2 125/3/2 129/3/2
f 132/5/3 131/5/3 130/5/3
f 133/5/3 131/5/3 132/5/3
f 136/5/3 135/5/3 134/5/3
f 137/5/3 135/5/3 136/5/3
f 144/2/3 139/2/3 138/2/3
f 145/3/3 140/3/3 139/3/3
f 145/2/3 139/2/3 144/2/3
f 146/3/3 140/3/3 145/3/3
f 147/4/3 141/4/3 140/4/3
f 148/3/3 142/3/3 141/3/3
f 148/4/3 141/4/3 147/4/3
f 149/3/3 142/3/3 148/3/3
f 150/1/3 144/1/3 143/1/3
f 150/1/3 145/1/3 144/1/3
f 151/1/3 145/1/3 150/1/3
f 152/2/3 146/2/3 145/2/3
f 152/1/3 145/1/3 151/1/3
f 153/3/3 140/3/3 146/3/3
f 153/2/3 146/2/3 152/2/3
f 154/4/3 147/4/3 140/4/3
f 156/2/3 151/2/3 150/2/3
f 157/3/3 152/3/3 151/3/3
f 157/2/3 151/2/3 156/2/3
f 158/1/3 153/1/3 152/1/3
f 158/3/3 152/3/3 157/3/3
f 159/3/3 140/3/3 153/3/3
f 159/1/3 153/1/3 158/1/3
f 160/4/3 155/4/3 154/4/3
f 160/4/3 154/4/3 140/4/3
f 161/4/3 155/4/3 160/4/3
f 162/3/3 158/3/3 157/3/3
f 162/4/3 157/4/3 156/4/3
f 162/3/3 159/3/3 158/3/3
f 163/3/3 140/3/3 159/3/3
f 163/3/3 159/3/3 162/3/3
f 164/1/3 161/1/3 160/1/3
f 164/4/3 160/4/3 140/4/3
f 165/1/3 161/1/3 164/1/3
f 166/4/3 162/4/3 156/4/3
f 166/4/3 163/4/3 162/4/3
f 167/4/3 163/4/3 166/4/3
f 168/4/3 163/4/3 167/4/3
f 169/3/3 140/3/3 163/3/3
f 169/4/3 163/4/3 168/4/3
f 170/4/3 164/4/3 140/4/3
f 173/3/3 168/3/3 167/3/3
f 174/2/3 169/2/3 168/2/3
f 174/3/3 168/3/3 173/3/3
f 175/3/3 140/3/3 169/3/3
f 175/2/3 169/2/3 174/2/3
f 176/4/3 171/4/3 170/4/3
f 176/3/3 140/3/3 175/3/3
f 176/4/3 170/4/3 140/4/3
f 177/3/3 172/3/3 171/3/3
f 177/4/3 171/4/3 176/4/3
f 178/3/3 172/3/3 177/3/3
f 181/3/3 180/3/3 179/3/3
f 182/3/3 180/3/3 181/3/3
f 185/1/3 184/1/3 183/1/3
f 186/1/3 184/1/3 185/1/3
f 189/4/3 188/4/3 187/4/3
f 190/4/3 188/4/3 189/4/3
f 193/3/3 192/3/3 191/3/3
f 194/3/3 192/3/3 193/3/3
f 197/3/3 196/3/3 195/3/3
f 198/3/3 196/3/3 197/3/3
f 199/4/4 200/4/4 202/4/4
f 200/3/4 201/3/4 202/3/4
f 202/3/4 201/3/4 203/3/4
f 199/4/4 202/4/4 204/4/4
f 204/4/4 202/4/4 205/4/4
f 204/1/4 205/1/4 206/1/4
f 206/1/4 205/1/4 207/1/4
f 207/3/4 208/3/4 209/3/4
f 209/3/4 208/3/4 210/3/4
f 211/3/4 212/3/4 213/3/4
f 213/3/4 212/3/4 214/3/4
f 215/3/4 216/3/4 217/3/4
f 217/3/4 216/3/4 218/3/4
f 219/3/4 220/3/4 223/3/4
f 220/4/4 221/4/4 224/4/4
f 224/4/4 221/4/4 225/4/4
f 222/4/4 223/4/4 226/4/4
f 223/3/4 220/3/4 227/3/4
f 226/4/4 223/4/4 227/4/4
f 220/4/4 224/4/4 228/4/4
f 227/3/4 220/3/4 230/3/4
f 228/4/4 229/4/4 231/4/4
f 230/3/4 220/3/4 231/3/4
f 220/4/4 228/4/4 231/4/4
f 231/4/4 229/4/4 232/4/4
f 233/3/4 234/3/4 235/3/4
f 235/3/4 234/3/4 236/3/4
f 237/3/4 238/3/4 239/3/4
f 239/3/4 238/3/4 240/3/4
f 241/3/4 242/3/4 243/3/4
f 243/3/4 242/3/4 244/3/4
f 249/1/5 246/1/5 245/1/5
f 250/2/5 247/2/5 246/2/5
f 250/1/5 246/1/5 249/1/5
f 251/4/5 248/4/5 247/4/5
f 251/2/5 247/2/5 250/2/5
f 252/4/5 248/4/5 251/4/5
f 253/2/5 250/2/5 249/2/5
f 253/2/5 251/2/5 250/2/5
f 254/2/5 251/2/5 253/2/5
f 255/3/5 252/3/5 251/3/5
f 255/2/5 251/2/5 254/2/5
f 256/4/5 254/4/5 253/4/5
f 256/3/5 255/3/5 254/3/5
f 257/4/5 248/4/5 252/4/5
f 257/3/5 255/3/5 256/3/5
f 257/3/5 252/3/5 255/3/5
f 258/4/5 256/4/5 253/4/5
f 258/4/5 257/4/5 256/4/5
f 259/4/5 248/4/5 257/4/5
f 259/4/5 257/4/5 258/4/5
f 264/2/5 261/2/5 260/2/5
f 265/2/5 261/2/5 264/2/5
f 266/3/5 265/3/5 264/3/5
f 267/3/5 266/3/5 264/3/5
f 268/3/5 266/3/5 267/3/5
f 269/3/5 263/3/5 262/3/5
f 270/3/5 263/3/5 269/3/5
f 275/5/5 272/5/5 271/5/5
f 276/5/5 272/5/5 275/5/5
f 277/5/5 274/5/5 273/5/5
f 278/5/5 274/5/5 277/5/5
f 281/3/5 280/3/5 279/3/5
f 282/3/5 280/3/5 281/3/5
f 287/3/5 284/3/5 283/3/5
f 288/3/5 284/3/5 287/3/5
f 289/3/5 286/3/5 285/3/5
f 290/3/5 286/3/5 289/3/5
f 291/2/6 292/2/6 293/2/6
f 293/2/6 292/2/6 294/2/6
f 295/3/6 296/3/6 298/3/6
f 296/3/6 297/3/6 298/3/6
f 298/3/6 297/3/6 299/3/6
f 299/3/6 297/3/6 300/3/6
f 300/3/6 297/3/6 301/3/6
f 298/3/6 299/3/6 302/3/6
f 299/1/6 300/1/6 303/1/6
f 302/3/6 299/3/6 303/3/6
f 303/1/6 300/1/6 304/1/6
f 304/1/6 305/1/6 307/1/6
f 305/1/6 306/1/6 307/1/6
f 303/1/6 304/1/6 307/1/6
f 307/1/6 306/1/6 308/1/6
f 308/1/6 306/1/6 309/1/6
f 307/4/6 308/4/6 310/4/6
f 310/4/6 308/4/6 311/4/6
f 312/4/6 313/4/6 315/4/6
f 313/1/6 314/1/6 316/1/6
f 315/4/6 313/4/6 316/4/6
f 316/1/6 314/1/6 317/1/6
f 317/3/6 318/3/6 321/3/6
f 321/3/6 318/3/6 322/3/6
f 319/3/6 320/3/6 323/3/6
f 323/3/6 320/3/6 324/3/6
f 323/4/6 324/4/6 327/4/6
f 327/4/6 324/4/6 328/4/6
f 325/4/6 326/4/6 329/4/6
f 329/4/6 326/4/6 330/4/6
f 327/3/6 328/3/6 331/3/6
f 328/3/6 329/3/6 331/3/6
f 329/3/6 330/3/6 331/3/6
f 331/3/6 330/3/6 332/3/6
f 333/5/6 334/5/6 338/5/6
f 338/5/6 334/5/6 339/5/6
f 335/5/6 336/5/6 340/5/6
f 340/5/6 336/5/6 341/5/6
f 338/3/6 339/3/6 343/3/6
f 337/3/6 338/3/6 343/3/6
f 343/3/6 339/3/6 344/3/6
f 344/3/6 339/3/6 345/3/6
f 341/3/6 342/3/6 346/3/6
f 340/3/6 341/3/6 346/3/6
f 346/3/6 342/3/6 347/3/6
f 347/3/6 342/3/6 348/3/6
f 343/4/6 344/4/6 349/4/6
f 349/4/6 344/4/6 350/4/6
f 347/4/6 348/4/6 351/4/6
f 351/4/6 348/4/6 352/4/6
f 349/3/6 350/3/6 353/3/6
f 353/3/6 350/3/6 354/3/6
f 351/3/6 352/3/6 355/3/6
f 355/3/6 352/3/6 356/3/6
f 354/3/6 355/3/6 357/3/6
f 357/3/6 355/3/6 358/3/6
