# MagicaVoxel @ Ephtracy

# group
o 

# material
mtllib Right Enemy Foot.mtl
usemtl palette

# normals
vn -1 0 0
vn 1 0 0
vn 0 0 1
vn 0 0 -1
vn 0 -1 0
vn 0 1 0

# texcoords
vt 0.537109 0.5
vt 0.958984 0.5
vt 0.990234 0.5

# verts
v -0.2 0 0.4
v -0.2 0 0.1
v -0.2 0 -0.3
v -0.2 0.1 0.3
v -0.2 0.1 0.1
v -0.2 0.2 0.4
v -0.2 0.2 0.3
v -0.2 0.2 0
v -0.2 0.2 -0.1
v -0.2 0.2 -0.2
v -0.2 0.3 0
v -0.2 0.3 -0.1
v -0.2 0.3 -0.2
v -0.2 0.3 -0.3
v 0.2 0 0.4
v 0.2 0 0.3
v 0.2 0 -0.3
v 0.2 0.1 0
v 0.2 0.1 -0.1
v 0.2 0.2 0.4
v 0.2 0.2 0.3
v 0.2 0.2 0
v 0.2 0.2 -0.1
v 0.2 0.2 -0.3
v 0.2 0.3 0
v 0.2 0.3 -0.3
v -0.2 0 0.4
v -0.2 0.2 0.4
v -0.1 0 0.4
v -0.1 0.2 0.4
v 0 0 0.4
v 0 0.1 0.4
v 0.1 0.1 0.4
v 0.1 0.2 0.4
v 0.2 0 0.4
v 0.2 0.2 0.4
v -0.2 0.2 0
v -0.2 0.3 0
v 0.1 0.2 0
v 0.1 0.3 0
v 0.2 0.2 0
v 0.2 0.3 0
v -0.2 0 -0.3
v -0.2 0.3 -0.3
v -0.1 0.2 -0.3
v -0.1 0.3 -0.3
v 0.1 0.2 -0.3
v 0.1 0.3 -0.3
v 0.2 0 -0.3
v 0.2 0.2 -0.3
v 0.2 0.3 -0.3
v -0.2 0 0.4
v -0.1 0 0.4
v 0 0 0.4
v 0.2 0 0.4
v 0 0 0.3
v 0.2 0 0.3
v -0.2 0 0.1
v -0.1 0 0.1
v -0.2 0 -0.3
v 0.2 0 -0.3
v -0.2 0.2 0.4
v -0.1 0.2 0.4
v 0.1 0.2 0.4
v 0.2 0.2 0.4
v -0.2 0.2 0.3
v -0.1 0.2 0.3
v 0.1 0.2 0.3
v 0.2 0.2 0.3
v -0.2 0.2 0
v 0.1 0.2 0
v 0.2 0.2 0
v -0.2 0.3 0
v 0.1 0.3 0
v 0.2 0.3 0
v -0.2 0.3 -0.1
v 0 0.3 -0.1
v -0.2 0.3 -0.2
v -0.1 0.3 -0.2
v 0 0.3 -0.2
v 0.1 0.3 -0.2
v -0.2 0.3 -0.3
v -0.1 0.3 -0.3
v 0.1 0.3 -0.3
v 0.2 0.3 -0.3

# faces
f 4/1/1 2/1/1 1/1/1
f 5/2/1 3/2/1 2/2/1
f 5/1/1 2/1/1 4/1/1
f 6/1/1 4/1/1 1/1/1
f 7/2/1 5/2/1 4/2/1
f 7/1/1 4/1/1 6/1/1
f 8/2/1 3/2/1 5/2/1
f 8/2/1 5/2/1 7/2/1
f 9/2/1 3/2/1 8/2/1
f 10/2/1 3/2/1 9/2/1
f 11/2/1 9/2/1 8/2/1
f 12/3/1 10/3/1 9/3/1
f 12/2/1 9/2/1 11/2/1
f 13/2/1 3/2/1 10/2/1
f 13/3/1 10/3/1 12/3/1
f 14/2/1 3/2/1 13/2/1
f 16/2/2 17/2/2 18/2/2
f 18/2/2 17/2/2 19/2/2
f 15/1/2 16/1/2 20/1/2
f 16/2/2 18/2/2 21/2/2
f 20/1/2 16/1/2 21/1/2
f 18/1/2 19/1/2 22/1/2
f 21/2/2 18/2/2 22/2/2
f 19/2/2 17/2/2 23/2/2
f 22/1/2 19/1/2 23/1/2
f 23/2/2 17/2/2 24/2/2
f 23/1/2 24/1/2 25/1/2
f 22/1/2 23/1/2 25/1/2
f 25/1/2 24/1/2 26/1/2
f 29/1/3 28/1/3 27/1/3
f 30/1/3 28/1/3 29/1/3
f 31/2/3 30/2/3 29/2/3
f 32/2/3 30/2/3 31/2/3
f 33/1/3 32/1/3 31/1/3
f 33/2/3 30/2/3 32/2/3
f 34/2/3 30/2/3 33/2/3
f 35/1/3 33/1/3 31/1/3
f 35/1/3 34/1/3 33/1/3
f 36/1/3 34/1/3 35/1/3
f 39/2/3 38/2/3 37/2/3
f 40/2/3 38/2/3 39/2/3
f 41/1/3 40/1/3 39/1/3
f 42/1/3 40/1/3 41/1/3
f 43/2/4 44/2/4 45/2/4
f 45/2/4 44/2/4 46/2/4
f 43/2/4 45/2/4 47/2/4
f 45/3/4 46/3/4 47/3/4
f 47/3/4 46/3/4 48/3/4
f 43/2/4 47/2/4 49/2/4
f 47/1/4 48/1/4 50/1/4
f 49/2/4 47/2/4 50/2/4
f 50/1/4 48/1/4 51/1/4
f 56/2/5 54/2/5 53/2/5
f 56/1/5 55/1/5 54/1/5
f 57/1/5 55/1/5 56/1/5
f 58/1/5 53/1/5 52/1/5
f 59/2/5 56/2/5 53/2/5
f 59/1/5 53/1/5 58/1/5
f 59/2/5 57/2/5 56/2/5
f 60/2/5 59/2/5 58/2/5
f 61/2/5 57/2/5 59/2/5
f 61/2/5 59/2/5 60/2/5
f 62/1/6 63/1/6 66/1/6
f 63/2/6 64/2/6 67/2/6
f 66/1/6 63/1/6 67/1/6
f 64/1/6 65/1/6 68/1/6
f 67/2/6 64/2/6 68/2/6
f 68/1/6 65/1/6 69/1/6
f 66/2/6 67/2/6 70/2/6
f 67/2/6 68/2/6 70/2/6
f 68/2/6 69/2/6 70/2/6
f 70/2/6 69/2/6 71/2/6
f 71/2/6 69/2/6 72/2/6
f 73/2/6 74/2/6 76/2/6
f 76/2/6 74/2/6 77/2/6
f 76/3/6 77/3/6 78/3/6
f 78/3/6 77/3/6 79/3/6
f 77/2/6 74/2/6 80/2/6
f 79/3/6 77/3/6 80/3/6
f 74/1/6 75/1/6 81/1/6
f 80/2/6 74/2/6 81/2/6
f 78/2/6 79/2/6 82/2/6
f 79/3/6 80/3/6 83/3/6
f 82/2/6 79/2/6 83/2/6
f 80/3/6 81/3/6 83/3/6
f 81/1/6 75/1/6 84/1/6
f 83/3/6 81/3/6 84/3/6
f 84/1/6 75/1/6 85/1/6
