# MagicaVoxel @ Ephtracy

# group
o 

# material
mtllib Right Enemy Hand.mtl
usemtl palette

# normals
vn -1 0 0
vn 1 0 0
vn 0 0 1
vn 0 0 -1
vn 0 -1 0
vn 0 1 0

# texcoords
vt 0.537109 0.5
vt 0.958984 0.5

# verts
v -0.2 0 0.3
v -0.2 0 -0.1
v -0.2 0.3 0.3
v -0.2 0.3 0.1
v -0.2 0.4 0.3
v -0.2 0.4 0.1
v -0.2 0.4 -0.1
v -0.1 0.1 -0.1
v -0.1 0.1 -0.2
v -0.1 0.3 -0.1
v -0.1 0.3 -0.2
v 0.1 0.1 -0.1
v 0.1 0.1 -0.2
v 0.1 0.3 -0.1
v 0.1 0.3 -0.2
v 0.2 0 0.3
v 0.2 0 -0.1
v 0.2 0.4 0.3
v 0.2 0.4 -0.1
v -0.2 0 0.3
v -0.2 0.3 0.3
v -0.2 0.4 0.3
v -0.1 0.1 0.3
v -0.1 0.3 0.3
v 0 0.1 0.3
v 0 0.3 0.3
v 0.1 0.3 0.3
v 0.1 0.4 0.3
v 0.2 0 0.3
v 0.2 0.4 0.3
v -0.2 0 -0.1
v -0.2 0.4 -0.1
v -0.1 0.1 -0.1
v -0.1 0.3 -0.1
v 0.1 0.1 -0.1
v 0.1 0.3 -0.1
v 0.2 0 -0.1
v 0.2 0.4 -0.1
v -0.1 0.1 -0.2
v -0.1 0.3 -0.2
v 0.1 0.1 -0.2
v 0.1 0.3 -0.2
v -0.2 0 0.3
v 0.2 0 0.3
v -0.2 0 -0.1
v 0.2 0 -0.1
v -0.1 0.1 -0.1
v 0.1 0.1 -0.1
v -0.1 0.1 -0.2
v 0.1 0.1 -0.2
v -0.1 0.3 -0.1
v 0.1 0.3 -0.1
v -0.1 0.3 -0.2
v 0.1 0.3 -0.2
v -0.2 0.4 0.3
v 0.1 0.4 0.3
v 0.2 0.4 0.3
v -0.1 0.4 0.2
v 0.1 0.4 0.2
v -0.2 0.4 0.1
v -0.1 0.4 0.1
v -0.2 0.4 -0.1
v 0.2 0.4 -0.1

# faces
f 3/2/1 2/2/1 1/2/1
f 4/2/1 2/2/1 3/2/1
f 5/1/1 4/1/1 3/1/1
f 6/2/1 2/2/1 4/2/1
f 6/1/1 4/1/1 5/1/1
f 7/2/1 2/2/1 6/2/1
f 10/2/1 9/2/1 8/2/1
f 11/2/1 9/2/1 10/2/1
f 12/2/2 13/2/2 14/2/2
f 14/2/2 13/2/2 15/2/2
f 16/2/2 17/2/2 18/2/2
f 18/2/2 17/2/2 19/2/2
f 23/2/3 21/2/3 20/2/3
f 24/1/3 22/1/3 21/1/3
f 24/2/3 21/2/3 23/2/3
f 25/2/3 23/2/3 20/2/3
f 25/1/3 24/1/3 23/1/3
f 26/1/3 22/1/3 24/1/3
f 26/1/3 24/1/3 25/1/3
f 27/2/3 26/2/3 25/2/3
f 27/1/3 22/1/3 26/1/3
f 28/1/3 22/1/3 27/1/3
f 29/2/3 25/2/3 20/2/3
f 29/2/3 27/2/3 25/2/3
f 29/2/3 28/2/3 27/2/3
f 30/2/3 28/2/3 29/2/3
f 31/2/4 32/2/4 33/2/4
f 33/2/4 32/2/4 34/2/4
f 31/2/4 33/2/4 35/2/4
f 34/2/4 32/2/4 36/2/4
f 31/2/4 35/2/4 37/2/4
f 35/2/4 36/2/4 37/2/4
f 36/2/4 32/2/4 38/2/4
f 37/2/4 36/2/4 38/2/4
f 39/2/4 40/2/4 41/2/4
f 41/2/4 40/2/4 42/2/4
f 45/2/5 44/2/5 43/2/5
f 46/2/5 44/2/5 45/2/5
f 49/2/5 48/2/5 47/2/5
f 50/2/5 48/2/5 49/2/5
f 51/2/6 52/2/6 53/2/6
f 53/2/6 52/2/6 54/2/6
f 55/1/6 56/1/6 58/1/6
f 56/2/6 57/2/6 59/2/6
f 58/1/6 56/1/6 59/1/6
f 55/1/6 58/1/6 60/1/6
f 58/2/6 59/2/6 61/2/6
f 60/1/6 58/1/6 61/1/6
f 60/2/6 61/2/6 62/2/6
f 59/2/6 57/2/6 63/2/6
f 62/2/6 61/2/6 63/2/6
f 61/2/6 59/2/6 63/2/6
